<?xml version="1.0" encoding="utf-8"?>
<!-- Generator: Adobe Illustrator 23.0.0, SVG Export Plug-In . SVG Version: 6.00 Build 0)  -->
<svg version="1.1" id="图层_1" xmlns="http://www.w3.org/2000/svg" xmlns:xlink="http://www.w3.org/1999/xlink" x="0px" y="0px"
 viewBox="0 0 164 179.4" style="enable-background:new 0 0 164 179.4;" xml:space="preserve">
<style type="text/css">
	.st0{opacity:1;fill:#6443c0;}
	.st0-1{opacity:1;fill:#7399e5;}
	.st0-2{opacity:1;fill:#c7d65c;}
	.st1{opacity:1;}
	.st4{fill:#293965;}
	.st5{fill:none;stroke:#626D8D;stroke-miterlimit:10;}
	.st6{fill:url(#SVGID_3_);}
	.st7{fill:#F9F900;}
	.st8{fill:#FFFFFF;}
	.st9{fill:#54E0FE;}
</style>
<g>
	<defs>
		<linearGradient
                      id="Gradient"
                      gradientUnits="userSpaceOnUse"
                      x1="0" y1="0"
                      x2="800" y2="0">
        <stop offset="0" stop-color="white" stop-opacity="0" />
        <stop offset="1" stop-color="white" stop-opacity="1" />
      </linearGradient>
	  
		
		<mask id="Mask1" maskUnits="userSpaceOnUse" x="0" y="0" width="400" height="300">
			<path class="st0" d="M183.8,166v156.8c-60.4-0.2-120.8-0.4-181.2-0.6c-60.4,0.2-120.8,0.4-181.2,0.6V166c11.4-0.4,20.9-1.9,28-3.4
		c27.3-5.7,34.1-14.3,49.6-10.3c4.5,1.2,24.3,7.2,32.7,10.2c0.6,0.2,2.5,0.9,5.1,1.5c3.3,0.8,7,1.4,11.3,1.5
		c4.6,0.1,8.6-0.3,12.1-1.1c2.3-0.5,4.5-1.2,6.5-1.9c12.6-4.8,20.2-13.7,35.9-14.9c15.7,1.2,23.3,10.1,35.9,14.9
		c2,0.8,4.1,1.4,6.5,1.9c3.5,0.8,7.5,1.2,12.1,1.1c4.3-0.1,8-0.6,11.3-1.5c2.6-0.6,4.5-1.3,5.1-1.5c8.3-3,28.1-9,32.7-10.2
		c15.5-4,22.3,4.6,49.6,10.3C163,164.1,172.4,165.6,183.8,166z">
				<animateMotion id="start0"  path="M0 0 L0 -50 " begin="0s"  dur="1s" ></animateMotion>
				<animateMotion id="end0"  path="M0 -50 L362.42 -50 " begin="start0.end" dur="8s"  repeatCount="indefinite"></animateMotion>
			</path>
			<path class="st0" d="M-178.6,166v156.8c-60.4-0.2-120.8-0.4-181.2-0.6c-60.4,0.2-120.8,0.4-181.2,0.6V166c11.4-0.4,20.9-1.9,28-3.4
		c27.3-5.7,34.1-14.3,49.6-10.3c4.5,1.2,24.3,7.2,32.7,10.2c0.6,0.2,2.5,0.9,5.1,1.5c3.3,0.8,7,1.4,11.3,1.5
		c4.6,0.1,8.6-0.3,12.1-1.1c2.3-0.5,4.5-1.2,6.5-1.9c12.6-4.8,20.2-13.7,35.9-14.9c15.7,1.2,23.3,10.1,35.9,14.9
		c2,0.8,4.1,1.4,6.5,1.9c3.5,0.8,7.5,1.2,12.1,1.1c4.3-0.1,8-0.6,11.3-1.5c2.6-0.6,4.5-1.3,5.1-1.5c8.3-3,28.1-9,32.7-10.2
		c15.5-4,22.3,4.6,49.6,10.3C-199.4,164.1-190,165.6-178.6,166z">
				<animateMotion id="start0_0"  path="M0 0 L0 -50 " begin="0s"  dur="1s" ></animateMotion>
				<animateMotion id="end0_0"  path="M0 -50 L362.42 -50 " begin="start0_0.end" dur="8s"  repeatCount="indefinite"></animateMotion>
			</path>
      </mask>
	  <mask id="Mask2" maskUnits="userSpaceOnUse" x="0" y="0" width="400" height="300">
			<path class="st0-1" d="M237.2,174.1v156.8c-60.4-0.2-120.8-0.4-181.2-0.6c-60.4,0.2-120.8,0.4-181.2,0.6V174.1
		c11.4-0.4,20.9-1.9,28-3.4c27.3-5.7,34.1-14.3,49.6-10.3c4.5,1.2,24.3,7.2,32.7,10.2c0.6,0.2,2.5,0.9,5.1,1.5
		c3.3,0.8,7,1.4,11.3,1.5c4.6,0.1,8.6-0.3,12.1-1.1c2.3-0.5,4.5-1.2,6.5-1.9c12.6-4.8,20.2-13.7,35.9-14.9
		c15.7,1.2,23.3,10.1,35.9,14.9c2,0.8,4.1,1.4,6.5,1.9c3.5,0.8,7.5,1.2,12.1,1.1c4.3-0.1,8-0.6,11.3-1.5c2.6-0.6,4.5-1.3,5.1-1.5
		c8.3-3,28.1-9,32.7-10.2c15.5-4,22.3,4.6,49.6,10.3C216.4,172.2,225.8,173.7,237.2,174.1z">
				<animateMotion id="start1_0"  path="M0 0 L0 -50 " begin="start0.end"  dur="1s" ></animateMotion>
				<animateMotion id="end1_0"  path="M0 -50 L362.42 -50 " begin="start1_0.end" dur="8s"  repeatCount="indefinite"></animateMotion>
			</path>
			<path class="st0-1" d="M-125.2,174.1v156.8c-60.4-0.2-120.8-0.4-181.2-0.6c-60.4,0.2-120.8,0.4-181.2,0.6V174.1
		c11.4-0.4,20.9-1.9,28-3.4c27.3-5.7,34.1-14.3,49.6-10.3c4.5,1.2,24.3,7.2,32.7,10.2c0.6,0.2,2.5,0.9,5.1,1.5
		c3.3,0.8,7,1.4,11.3,1.5c4.6,0.1,8.6-0.3,12.1-1.1c2.3-0.5,4.5-1.2,6.5-1.9c12.6-4.8,20.2-13.7,35.9-14.9
		c15.7,1.2,23.3,10.1,35.9,14.9c2,0.8,4.1,1.4,6.5,1.9c3.5,0.8,7.5,1.2,12.1,1.1c4.3-0.1,8-0.6,11.3-1.5c2.6-0.6,4.5-1.3,5.1-1.5
		c8.3-3,28.1-9,32.7-10.2c15.5-4,22.3,4.6,49.6,10.3C-146,172.2-136.6,173.7-125.2,174.1z">
				<animateMotion id="start1_1"  path="M0 0 L0 -50 " begin="start0.end"  dur="1s" ></animateMotion>
				<animateMotion id="end1_1"  path="M0 -50 L362.42 -50 " begin="start1_1.end" dur="8s"  repeatCount="indefinite"></animateMotion>
			</path>
	  </mask>
	  <mask id="Mask3" maskUnits="userSpaceOnUse" x="0" y="0" width="400" height="300">
			<path class="st0-2" d="M211.7,166v156.8c-60.4-0.2-120.8-0.4-181.2-0.6c-60.4,0.2-120.8,0.4-181.2,0.6V166c11.4-0.4,20.9-1.9,28-3.4
		c27.3-5.7,34.1-14.3,49.6-10.3c4.5,1.2,24.3,7.2,32.7,10.2c0.6,0.2,2.5,0.9,5.1,1.5c3.3,0.8,7,1.4,11.3,1.5
		c4.6,0.1,8.6-0.3,12.1-1.1c2.3-0.5,4.5-1.2,6.5-1.9c12.6-4.8,20.2-13.7,35.9-14.9c15.7,1.2,23.3,10.1,35.9,14.9
		c2,0.8,4.1,1.4,6.5,1.9c3.5,0.8,7.5,1.2,12.1,1.1c4.3-0.1,8-0.6,11.3-1.5c2.6-0.6,4.5-1.3,5.1-1.5c8.3-3,28.1-9,32.7-10.2
		c15.5-4,22.3,4.6,49.6,10.3C190.9,164.1,200.3,165.6,211.7,166z">
				<animateMotion id="start2_0"  path="M0 0 L0 -30 " begin="start1_0.end"  dur="1s" ></animateMotion>
				<animateMotion id="end2_0"  path="M0 -30 L362.42 -30 " begin="start2_0.end" dur="6s"  repeatCount="indefinite"></animateMotion>
			</path>
			<path class="st0-2" d="M-150.7,166v156.8c-60.4-0.2-120.8-0.4-181.2-0.6c-60.4,0.2-120.8,0.4-181.2,0.6V166c11.4-0.4,20.9-1.9,28-3.4
		c27.3-5.7,34.1-14.3,49.6-10.3c4.5,1.2,24.3,7.2,32.7,10.2c0.6,0.2,2.5,0.9,5.1,1.5c3.3,0.8,7,1.4,11.3,1.5
		c4.6,0.1,8.6-0.3,12.1-1.1c2.3-0.5,4.5-1.2,6.5-1.9c12.6-4.8,20.2-13.7,35.9-14.9c15.7,1.2,23.3,10.1,35.9,14.9
		c2,0.8,4.1,1.4,6.5,1.9c3.5,0.8,7.5,1.2,12.1,1.1c4.3-0.1,8-0.6,11.3-1.5c2.6-0.6,4.5-1.3,5.1-1.5c8.3-3,28.1-9,32.7-10.2
		c15.5-4,22.3,4.6,49.6,10.3C-171.5,164.1-162.1,165.6-150.7,166z">
				<animateMotion id="start2_1"  path="M0 0 L0 -30 " begin="start1_0.end"  dur="1s" ></animateMotion>
				<animateMotion id="end2_1"  path="M0 -30 L362.42 -30 " begin="start2_1.end" dur="6s"  repeatCount="indefinite"></animateMotion>
			</path>
	  </mask>
	</defs>
	<circle   cx="80" cy="92.2" r="67 " fill="#293965" opacity="0.65" /> 
	<circle  class="st0"  mask="url(#Mask1)"  cx="80" cy="92.2" r="67 "/>
	<circle  class="st0-1" mask="url(#Mask2)"  cx="80" cy="92.2" r="67 "/>
	<circle  class="st0-2" mask="url(#Mask3)"  cx="80" cy="92.2" r="67 "/>
	
	<circle id="SVGID_2_" class="st5" cx="80" cy="92.2" r="80"/>
	
	<linearGradient id="SVGID_3_" gradientUnits="userSpaceOnUse" x1="121.9993" y1="8.2416" x2="121.9993" y2="176.2416">
		<stop  offset="0" style="stop-color:#54E0FE"/>
		<stop  offset="1" style="stop-color:#090DFF"/>
	</linearGradient>
	<path fill="url(#SVGID_3_)" d="M164,92.2c0,46.3-37.7,84-84,84v-8c41.9,0,76-34.1,76-76s-34.1-76-76-76v-8C126.3,8.2,164,45.9,164,92.2z"/>
	<circle class="st9" cx="80" cy="11.7" r="7"/>
</g>
</svg>
